<svg xmlns="http://www.w3.org/2000/svg" width="249.313" height="87.201" viewBox="0 0 249.313 87.201">
  <g id="Hynt_Beauty_Logo" data-name="Hynt Beauty Logo" transform="translate(-133.11 -131.805)">
    <g id="Group_1" data-name="Group 1" transform="translate(133.11 131.805)">
      <path id="Path_1" data-name="Path 1" d="M231.035,175.836c-.953.544-22.949,12.465-23.723,12.465l-1.69.523a3.944,3.944,0,0,0-.268.7q-.093.326-.269.794a29.774,29.774,0,0,0-.984,3.413,11,11,0,0,1-.536,1.916,2.2,2.2,0,0,1-.85.934,7.475,7.475,0,0,1-1.475.8q-.8.326-1.565.561a4.331,4.331,0,0,1-1.117.234.889.889,0,0,1-.8-.421,3.363,3.363,0,0,1-.27-1.637,10.071,10.071,0,0,1,.358-2.757c.237-.841.448-1.606.626-2.29a.643.643,0,0,1,.046-.281.677.677,0,0,0,.045-.281,6.176,6.176,0,0,0-.045-.747c-.032-.25-.076-.528-.133-.842a18.827,18.827,0,0,1-4.651-.468q-2.055-.466-3.935-.934a13.262,13.262,0,0,0-3.039-.468,7.563,7.563,0,0,1-2.5-.513q-1.43-.514-3.309-1.076-1.432-.466-2.682-.935t-2.414-.934l-4.113,5.327a8.4,8.4,0,0,1-.94,1.121,2.727,2.727,0,0,1-.49.374,1.665,1.665,0,0,1-.4.141,1.545,1.545,0,0,0-.579.326A6.537,6.537,0,0,0,168.16,192a12.22,12.22,0,0,1-1.7,1.59c-.837.684-1.521,1.263-2.056,1.729a9.656,9.656,0,0,1-1.88,1.261q-.537.373-1.654,1.263t-2.726,1.917a40.95,40.95,0,0,1-3.667,2.056,24.158,24.158,0,0,1-4.471,1.683,30.713,30.713,0,0,1-4.827.981,44.115,44.115,0,0,1-4.738.234,10.322,10.322,0,0,1-1.833-.242,13.973,13.973,0,0,1-2.414-.726,9.044,9.044,0,0,1-2.145-1.208,2.145,2.145,0,0,1-.939-1.75,3.722,3.722,0,0,1,.18-.982,4.62,4.62,0,0,1,.535-1.168,5.176,5.176,0,0,1,.805-.982,1.326,1.326,0,0,1,.895-.421,1.588,1.588,0,0,1,1.207.749c.389.5.729.935,1.029,1.309a11.075,11.075,0,0,0,1.609,1.308,5.415,5.415,0,0,0,2.145.935,10.216,10.216,0,0,0,2.773.467,12.807,12.807,0,0,0,3.307-.513,35.2,35.2,0,0,0,5.633-2.381,24.805,24.805,0,0,0,4.112-2.613,29.366,29.366,0,0,0,2.639-2.38,16.483,16.483,0,0,0,1.519-1.774q.491-.7.851-.7.715-.561,1.43-1.21a6.558,6.558,0,0,0,1.251-1.59,7.53,7.53,0,0,1,1.521-1.96q.982-.931,1.877-1.961l2.771-3.733a11.472,11.472,0,0,1-2.771-2.521,19.741,19.741,0,0,1-1.966-2.8,5.418,5.418,0,0,1-.805-2.707,2.082,2.082,0,0,1,1.073-1.68,19.862,19.862,0,0,1,2.595-1.494q1.7-.744,2.636-1.213a16.592,16.592,0,0,1,2.459-.934c.654-.125,1.192-.219,1.609-.281a8.528,8.528,0,0,1,1.252-.093,6.038,6.038,0,0,1,1.967.374.59.59,0,0,0,.448.187q.981-1.586,1.743-2.708A15.163,15.163,0,0,1,183,163.36a9.46,9.46,0,0,0,1.252-1.4q.624-.842,1.251-1.682a12.893,12.893,0,0,1-3.351.747,37,37,0,0,1-4.515.281H176.7a4.5,4.5,0,0,1-.937-.094q-2.6-.28-4.2-.561a9.284,9.284,0,0,1-2.949-1.025,17.589,17.589,0,0,0-3.084-1.4,9.315,9.315,0,0,1-2.639-1.308,6.045,6.045,0,0,1-1.877-1.587,13.1,13.1,0,0,0-1.789-1.866,7.5,7.5,0,0,1-1.833-2.611,10.77,10.77,0,0,1-.759-4.389,8.528,8.528,0,0,1,1.565-5.134,6.2,6.2,0,0,1,1.474-1.492,5.172,5.172,0,0,1,1.431-.748,7.644,7.644,0,0,0,2.1-1.353,10.4,10.4,0,0,1,2.637-1.634,5.382,5.382,0,0,1,1.475-.466,10.35,10.35,0,0,1,1.385-.094c.6,0,1.208.033,1.834.094s1.327.127,2.1.187,1.385.109,1.832.141a6.657,6.657,0,0,1,1.207.187,7.392,7.392,0,0,1,1.074.374,14.93,14.93,0,0,0,1.429.513,8.059,8.059,0,0,1,3,1.637,13.011,13.011,0,0,1,2.191,2.57,2.791,2.791,0,0,1,.537,1.215.739.739,0,0,1-.581.748,3.868,3.868,0,0,1-1.207.187,2.1,2.1,0,0,1-1.118-.468,2.717,2.717,0,0,1-.761-.655,10.28,10.28,0,0,0-1.34-1.5c-.535-.5-1.1-.995-1.7-1.5a3.921,3.921,0,0,0-1.833-.981,13.606,13.606,0,0,1-2.19-.608,7.916,7.916,0,0,0-2.416-.374c-.476,0-1.014.017-1.609.047s-1.311.08-2.145.14a5.3,5.3,0,0,0-1.565.187,2.48,2.48,0,0,0-.895.468,2.783,2.783,0,0,0-.535.654,9.178,9.178,0,0,1-.581.842,3.6,3.6,0,0,0-.582,1.5,11.516,11.516,0,0,0-.133,1.776v1.216a3.628,3.628,0,0,0,.178,1.121q.177,1.5.447,2.758a11.506,11.506,0,0,0,.893,2.571,16.345,16.345,0,0,0,2.013,2.8,15.924,15.924,0,0,0,2.281,2.243c.653.5,1.43,1.028,2.324,1.589a6.825,6.825,0,0,0,2.5,1.028q1.162.281,2.906.748a21.169,21.169,0,0,0,5.14.468,16.589,16.589,0,0,0,2.682-.235,21,21,0,0,0,2.682-.607q1.343-2.336,2.236-3.786t1.475-2.337a13.273,13.273,0,0,1,.984-1.355q.4-.466.848-.935a12.388,12.388,0,0,0,1.61-2.1c.478-.78,1.041-1.7,1.7-2.758a13.048,13.048,0,0,1,2.771-2.944,25.076,25.076,0,0,1,3.932-2.664,5.091,5.091,0,0,1,2.327-.655,2.994,2.994,0,0,1,1.743.468,1.649,1.649,0,0,1,.759.934,1.1,1.1,0,0,1,.089.468,3.217,3.217,0,0,1-.535,1.637q-.538.888-1.164,2.1a11.405,11.405,0,0,1-1.073,1.73,23.092,23.092,0,0,1-1.564,1.916q-.851.934-1.61,1.729t-1.207,1.356q-1.164,1.309-2.459,2.663a34.724,34.724,0,0,1-2.994,2.758,9.035,9.035,0,0,1-1.61,1.168,12.846,12.846,0,0,0-1.967,1.45,11.986,11.986,0,0,1-.67,1.355q-.495.89-1.073,1.916t-1.163,2.058a20.06,20.06,0,0,1-1.117,1.774l-2.235,3.365q.981.56,2.056,1.308,1.7,1.311,3.487,2.571a13.131,13.131,0,0,1,2.682,2.384q.892.934,1.788,1.869a11.673,11.673,0,0,1,1.52,1.962A16,16,0,0,0,197.933,182a6.163,6.163,0,0,1,1.341,2.15c.237.686.477,1.294.716,1.824a9.272,9.272,0,0,0,.538,1.074h.177q.267-.466,1.386-2.711t2.191-4.674q1.251-2.8,1.788-4.066a4.468,4.468,0,0,1,1.429-1.916,3.922,3.922,0,0,0,1.344-1.916,13.229,13.229,0,0,1,.984-2.2q.267-.466,1.251-2.2t2.145-3.786q1.161-2.056,2.234-4.019t1.611-2.9q1.073-2.148,1.7-3.6a4.793,4.793,0,0,1,1.251-1.916,2.932,2.932,0,0,0,.85-.842c.328-.435.655-.889.984-1.355s.611-.9.848-1.309a5.035,5.035,0,0,1,.537-.8q.088-.186.535-.981T224.89,144c.447-.716.951-1.464,1.521-2.243a11.532,11.532,0,0,1,1.83-2.01q1.344-1.213,2.192-1.963t1.431-1.168c.387-.281.716-.515.984-.7a10.839,10.839,0,0,0,.938-.748,8.48,8.48,0,0,1,1.877-.842q1.342-.465,2.817-.887t2.682-.747q1.208-.328,1.475-.421a5.461,5.461,0,0,1,1.967-.468c.716,0,1.073.249,1.073.747a3.075,3.075,0,0,1-.312,1.5.9.9,0,0,1-.761.56q-.984,0-2.5.141a4.769,4.769,0,0,0-2.5.887q-.806.561-1.252.889t-.761.561a4.64,4.64,0,0,0-.581.513,5.587,5.587,0,0,0-.626.841,12.833,12.833,0,0,0-1.029,1.73,9.472,9.472,0,0,1-1.3,1.916q-.988,1.03-1.834,1.869a18.937,18.937,0,0,0-2.191,2.9q-.715,1.031-1.207,1.777c-.328.5-.655.949-.984,1.355a8.772,8.772,0,0,0-.895,1.356q-.4.749-.937,1.776t-1.208,2.1q-.668,1.077-1.341,2.15c-.445.718-.864,1.4-1.251,2.056a13.294,13.294,0,0,0-.85,1.637,28.216,28.216,0,0,1-1.609,3.366c-.3.561-.568,1.074-.805,1.542s-.507.95-.8,1.45-.627,1.058-.985,1.682a22.983,22.983,0,0,1-1.428,2.148q-1.79,2.523-2.684,4.066t-1.786,3.132q-.807,1.59-2.1,3.693a18.155,18.155,0,0,0-1.744,3.411c-.121.374.344-.392.2-.2s.119-.247,0,0l32.882-17.47c0,1.609,2,2.464,1.549,2.381m-70.658,3.608a4.648,4.648,0,0,0,.758,1.682,10.937,10.937,0,0,0,1.744,1.869l1.162-1.682,3.31-5.422q-.987-.186-1.744-.279a12.93,12.93,0,0,0-1.566-.094,7.563,7.563,0,0,0-.848.047c-.269.033-.552.079-.85.139a2.5,2.5,0,0,0-1.563.935,2.792,2.792,0,0,0-.584,1.777A5.287,5.287,0,0,0,171.379,173.868Zm24.407,12.993a9.023,9.023,0,0,0,2.147.187q-.448-1.493-.984-2.85a5.385,5.385,0,0,0-1.252-2.011,9.034,9.034,0,0,1-1.565-1.636,2.73,2.73,0,0,0-.937-.889,3.591,3.591,0,0,1-1.208-.887,3.564,3.564,0,0,0-1.3-.887,3.209,3.209,0,0,1-.851-.609,4.94,4.94,0,0,1-.535-.654c-.149-.217-.329-.452-.537-.7a3.739,3.739,0,0,0-.937-.748q-.986-.652-1.609-1.121a11.772,11.772,0,0,0-1.521-.935l-1.431-.748-2.681,4.395q-.447.749-1.029,1.587t-1.205,1.683a1.45,1.45,0,0,0,.446.186q1.879.842,3.265,1.545t2.458,1.261a16.685,16.685,0,0,0,1.966.889,12.805,12.805,0,0,0,1.789.513q1.516.468,2.145.655c.416.127.984.314,1.7.561l1.744.608C194.311,186.41,194.95,186.614,195.786,186.861Z" transform="translate(-133.11 -131.805)" fill="#9b6a45"/>
      <path id="Path_2" data-name="Path 2" d="M335.765,189.8c.236-.188.638-.6,1.051-.931.508-.4.67-.628.878-.736a8.912,8.912,0,0,0,.987-.671,9.436,9.436,0,0,1,1.1-.916,28.649,28.649,0,0,1,2.751-1.769,1.954,1.954,0,0,1,.6-.415,1.836,1.836,0,0,0,.6-.413,3.235,3.235,0,0,0,1.237-1.016,3.251,3.251,0,0,1,.621-.791.9.9,0,0,0,.342-.208c.17-.136.439-.339.811-.616s.9-.652,1.584-1.133,1.542-1.1,2.57-1.852a9.415,9.415,0,0,0,1.309-1.21,13.82,13.82,0,0,1,1.221-1.205,7.122,7.122,0,0,1,2.037-1.067,15.85,15.85,0,0,1,3.254-.521,4.261,4.261,0,0,1,2.687.671,3.878,3.878,0,0,1,1.485,1.5,4.064,4.064,0,0,1,.482,1.193c.049.308.1.872.152,1.68a8.646,8.646,0,0,1-1.308,4.264c-.26.584-.412,1.1-.693,1.772-.255.608-.172,1.281-.548,1.868a9.2,9.2,0,0,0-.481,1.583,4.991,4.991,0,0,0-.141,1.28c.018.311.086.464.207.456.417-.027.665-.1.747-.236a8.467,8.467,0,0,1,1.053-1.009q1.44-1.313,2.319-2.265A3.256,3.256,0,0,1,366.267,186a1.288,1.288,0,0,0,.857-.618,1.576,1.576,0,0,1,.585-.7,9.907,9.907,0,0,1,1.045-1.056,11.16,11.16,0,0,1,1.5-1.086c.515-.346,1.172-.777,1.976-1.3a13.212,13.212,0,0,1,2.34-1.234,8.352,8.352,0,0,1,2.9-.847,4.856,4.856,0,0,1,1.174.112,4.109,4.109,0,0,1,3.267,2.043,10.858,10.858,0,0,0,1,2.193,7.428,7.428,0,0,1,.914,2.385,4.972,4.972,0,0,0,1.183,2.367,5.942,5.942,0,0,1,1.282,2.456,4.352,4.352,0,0,0,.527,1.237c.267.454.535.889.8,1.311a12.077,12.077,0,0,0,.789,1.124,4.42,4.42,0,0,0,2.621,1.757,8.346,8.346,0,0,0,3.521.428q2.321-.151,3.209-.3a10.645,10.645,0,0,0,1.587-.383,31.869,31.869,0,0,0,3.669-1.456,8.2,8.2,0,0,1,1.525-.659,5.908,5.908,0,0,0,1.939-1.159,2.548,2.548,0,0,0,1.3-.738,1.98,1.98,0,0,0,1.3-.649,2.717,2.717,0,0,1,1.562-.758q.895-.059.946.783a.585.585,0,0,1-.105.428.392.392,0,0,0-.119.241l-3.53,2.2a5.375,5.375,0,0,1-1.908.966,7.282,7.282,0,0,0-2.17,1.066,4.652,4.652,0,0,1-1.179.477l-1.1.294a15.282,15.282,0,0,0-1.7.688,3.683,3.683,0,0,1-1.364.4c-.758.237-1.434.423-2.023.554a12,12,0,0,1-1.866.262,38.2,38.2,0,0,1-4.026.074q-1.8-.071-3.237-.164a1.836,1.836,0,0,1-1.313-.243,4.158,4.158,0,0,0-1.608-.6,3.562,3.562,0,0,1-1.441-.8,5.337,5.337,0,0,0-1.452-.982c-.311-.169-.558-.308-.745-.42a2.02,2.02,0,0,1-.475-.392,6.966,6.966,0,0,1-.44-.579c-.164-.24-.383-.6-.653-1.082q-.994-1.527-1.4-2.252a6.732,6.732,0,0,1-.652-1.738c-.237-.856-.4-1.549-.5-2.074a13.232,13.232,0,0,0-.365-1.523,17.471,17.471,0,0,0-.581-2.023,1.181,1.181,0,0,0-1.306-.85,5.373,5.373,0,0,0-1.846.588,12.124,12.124,0,0,0-1.113.774,6.579,6.579,0,0,0-1.014.955A8.656,8.656,0,0,1,369,186.713a22.662,22.662,0,0,1-1.973,1.345,7.572,7.572,0,0,0-1.411,1.076q-.29.349-.7.934a5.987,5.987,0,0,1-1.616,1.37,13.79,13.79,0,0,0-2.13,1.684,8.648,8.648,0,0,0-1.434,1.358c-.278.361-.6.836-.984,1.422q-.636,1.259-1.4,2.527t-1.346,2.053q-.41.591-1.14,1.76a2.25,2.25,0,0,1-1.71,1.237,1.775,1.775,0,0,1-1.093-.259A4.074,4.074,0,0,1,351,202.026a3.492,3.492,0,0,1-.647-1.645,2.81,2.81,0,0,1,.045-.706c.044-.22.092-.426.142-.617.144-.509.328-1.162.545-1.955a15.841,15.841,0,0,1,.794-2.252,4.6,4.6,0,0,0,.476-1.625,5.944,5.944,0,0,1,.3-1.518,15.011,15.011,0,0,1,.593-1.913c.205-.512.437-1.059.7-1.638a10.239,10.239,0,0,0,.408-1.29c.119-.477.236-.952.356-1.428s.211-.887.279-1.235a5.219,5.219,0,0,1,.175-.716,3.827,3.827,0,0,0,.015-1.125,4.369,4.369,0,0,0-.161-1.113,1.522,1.522,0,0,0-1.665-.828,1.713,1.713,0,0,0-.657.23c-.258.142-.706.389-1.339.742a8.314,8.314,0,0,1-1.28,1.021c-.685.481-1.169,1.051-1.973,1.571s-1.578,1.093-2.407,1.584a18.958,18.958,0,0,0-1.786,1.314c-1.717,1.11-2.455,1.539-3.315,2.159-.479.347-2.334,2.029-3.138,2.516" transform="translate(-186.561 -143.019)" fill="#9b6a45"/>
      <path id="Path_3" data-name="Path 3" d="M434.55,177.982a2.967,2.967,0,0,0,.446-.935,11.525,11.525,0,0,0,1.162-1.682q.537-.934.984-1.682a7.635,7.635,0,0,1,1.028-1.5,5.411,5.411,0,0,0,.85-1.216,20.2,20.2,0,0,1,1.518-2.9c-.3.063-.579.11-.848.141a7.26,7.26,0,0,1-.85.046,2.364,2.364,0,0,1-.49-.046,2.085,2.085,0,0,0-.4-.047.932.932,0,0,1-.314-.046.97.97,0,0,0-.312-.047,3.467,3.467,0,0,0-1.3.234,3.842,3.842,0,0,0-1.026.607,3.544,3.544,0,0,1-.984.421,5.885,5.885,0,0,1-1.431.14,6.031,6.031,0,0,1-1.341-.187,1.01,1.01,0,0,1-.805-1.121q0-.747,1.163-1.635a3.574,3.574,0,0,1,2.056-.889,7.758,7.758,0,0,1,1.566.234,9.379,9.379,0,0,0,2.1.233h1.071a10.839,10.839,0,0,0,1.431-.094,16.954,16.954,0,0,0,1.789-.094c.18-.311.344-.607.492-.887a2.164,2.164,0,0,1,.581-.7q.715-.745,1.431-1.589a7.475,7.475,0,0,0,1.073-1.589,9.406,9.406,0,0,1,2.056-2.524,4.408,4.408,0,0,1,1.565-1.261q1.118-.605,2.1-1.076a8.536,8.536,0,0,0,1.341-.934,3.039,3.039,0,0,1,1.252-.655.593.593,0,0,0,.268-.046.583.583,0,0,1,.267-.048,1.972,1.972,0,0,1,1.252.422,1.158,1.158,0,0,1,.537.887,2.538,2.538,0,0,1-.4,1.028,3.334,3.334,0,0,1-1.116.935,8.014,8.014,0,0,0-1.431,1.263c-.42.467-.866,1.013-1.342,1.634q-.627.842-1.117,1.543a11.549,11.549,0,0,1-1.119,1.355c-.356.314-.535.561-.535.747a4.2,4.2,0,0,1-.18.935q2.055-.371,3.576-.794a9.647,9.647,0,0,1,2.056-.421h1.967c.417,0,.805.017,1.162.047s.6.046.716.046c.358,0,.535.219.535.654a1.219,1.219,0,0,1-.624,1.122,3.7,3.7,0,0,1-1.342.28,3.08,3.08,0,0,1-.537-.046,3.2,3.2,0,0,0-.535-.047,6,6,0,0,0-.893.047c-.181.032-.509.109-.986.233a17.994,17.994,0,0,1-2.011.328q-1.208.14-4.336.607a4.335,4.335,0,0,1-.447.982,9.776,9.776,0,0,1-1.074,1.261,10.272,10.272,0,0,0-1.385,2.01c-.211.469-.463,1.014-.761,1.637-.178.312-.433.794-.761,1.45s-.67,1.34-1.029,2.056-.714,1.4-1.071,2.056-.658,1.168-.895,1.541a9.907,9.907,0,0,0-1.251,3.132,11.989,11.989,0,0,1-1.163,3.131,15.875,15.875,0,0,0-.939,2.2,7.859,7.859,0,0,0-.4,2.571,6.476,6.476,0,0,0,.091,1.215,1.931,1.931,0,0,0,.8,1.309,2.667,2.667,0,0,0,1.7.56,5.118,5.118,0,0,0,1.788-.328,4.969,4.969,0,0,1,1.7-.326q1.071-.28,1.922-.422a3.583,3.583,0,0,0,1.3-.42,2.54,2.54,0,0,1,1.566-.421,2.527,2.527,0,0,0,1.565-.42,2.361,2.361,0,0,1,.714-.421,11.919,11.919,0,0,1,1.119-.42c.385-.125.759-.25,1.117-.374a1.924,1.924,0,0,0,.715-.374,2.986,2.986,0,0,1,1.073-.468,8.868,8.868,0,0,0,1.162-.373q.45-.188.449-.281c0-.063.326-.25.984-.561a11.561,11.561,0,0,0,1.607-.889,6.786,6.786,0,0,1,.805-.515,2.2,2.2,0,0,1,1.341-.468.944.944,0,0,1,.715.281,1.684,1.684,0,0,1,.267.656.594.594,0,0,1-.132.42l-.225.234a8.919,8.919,0,0,1-1.073.561c-.24.125-.508.249-.8.374a3.506,3.506,0,0,1-.628.513c-.236.157-.476.328-.713.515a4.188,4.188,0,0,1-1.923.794,4.84,4.84,0,0,0-2.1.889,3.01,3.01,0,0,1-1.074.561,10.9,10.9,0,0,0-1.073.374,8.579,8.579,0,0,1-1.563.468,1.4,1.4,0,0,0-.761.281,2.411,2.411,0,0,1-.849.513c-.389.157-.821.314-1.3.468a12.132,12.132,0,0,1-1.431.373,4.139,4.139,0,0,0-1.073.328c-.476.125-1.222.342-2.234.654a25.224,25.224,0,0,1-2.5.655,3.524,3.524,0,0,0-1.609.561,4.738,4.738,0,0,1-2.236.56,9.18,9.18,0,0,1-2.949-.515,4.433,4.433,0,0,1-1.969-1.074,3.738,3.738,0,0,1-.581-1.589,13.859,13.859,0,0,1-.132-1.963,8.015,8.015,0,0,1,.132-1.263q.136-.794.269-1.589t.311-1.448a2.246,2.246,0,0,1,.449-.936,3.832,3.832,0,0,0,.67-1.542,5.529,5.529,0,0,1,.492-1.45,4.892,4.892,0,0,0,.67-1.542q.4-1.263.848-2.664" transform="translate(-211.342 -137.821)" fill="#9b6a45"/>
      <path id="Path_4" data-name="Path 4" d="M275.341,180.784a12.659,12.659,0,0,1,1.611-.935q.981-.468,2.368-.982a9.626,9.626,0,0,1,2.37-.607,5.132,5.132,0,0,1,1.922.374,9.285,9.285,0,0,1,1.655.841,2.118,2.118,0,0,1,.848,1.216c.091.435.193,1,.314,1.682a2.5,2.5,0,0,1-.4.981q-.4.7-.939,1.542t-1.073,1.635a4.293,4.293,0,0,0-.625,1.169,3.7,3.7,0,0,1-.805,1.261,3.306,3.306,0,0,0-.716.982c-.239.5-.433.934-.579,1.308a2.7,2.7,0,0,1-.761,1.029,7.755,7.755,0,0,0-.49.981c-.211.468-.4.951-.582,1.45s-.344,1-.492,1.5a4.478,4.478,0,0,0-.225,1.028.751.751,0,0,0,.449.7,2.068,2.068,0,0,0,.982.233,2.385,2.385,0,0,0,.493-.046,3.776,3.776,0,0,0,.49-.141,6.732,6.732,0,0,0,1.566-.794,11.327,11.327,0,0,1,1.563-.889,14.435,14.435,0,0,0,1.386-1.029,14.975,14.975,0,0,1,1.386-1.028,6.635,6.635,0,0,0,1.788-1.45,4.805,4.805,0,0,1,1.969-1.355,4.025,4.025,0,0,0,1.609-.934,2.487,2.487,0,0,0,.535-.655l1.61-1.5,1.386-1.263a5.069,5.069,0,0,1,1.3-.887,5.393,5.393,0,0,1,2.771-.935,1.706,1.706,0,0,1,.8.187,15.081,15.081,0,0,1,1.788,1.029,3.485,3.485,0,0,1,1.52,2.15,8.162,8.162,0,0,0,.311,1.074,3.207,3.207,0,0,1,.182.56c.029.157.057.314.088.468a4.814,4.814,0,0,1,.044.8,25.015,25.015,0,0,1-.223,2.851,10.685,10.685,0,0,1-.581,2.663,6.894,6.894,0,0,0-.311,1.169c-.091.468-.357,1.024-.475,1.458-.178.5.118-.114,0,.385.6-.312.482-.3,1.006-.592.858-.475-.3.068.059-.09a3.571,3.571,0,0,1,.919-.385c.417-.094.443-.294,1.095-.709a7.476,7.476,0,0,1,1.037-.652c.828-.444.65-.523.948-.71a2.968,2.968,0,0,1,1.064-.563.838.838,0,0,0,.5-.236c.355-.3.623-.354.623-.416s1.3-.887,1.894-1.362c.171-.135.769-.562,1.037-.767.228-.176.71-.472.857-.564.475-.3,1.3-.652,1.717-.917.144-.092,2.2-1.162,2.442-1.255s1.022,1.018,1.26,1.018a.778.778,0,0,1,.621.326c.181.314-1.682,1.29-1.806,1.3a.623.623,0,0,0-.471.267c-.091.094-.478.293-.535.355l-1.981,1.392a19.979,19.979,0,0,1-2.014,1.242c-.493.225-.86.562-1.807,1.037-.389.194-.769.557-1.006.65s-1.074.505-1.361.652a14.405,14.405,0,0,0-1.244.8c-.386.147-.5.384-.889.563a4.539,4.539,0,0,0-.591.325,5.261,5.261,0,0,0-1.037.741c-.325.266-.719.643-1,.83a5.876,5.876,0,0,1-1.308.783,12.807,12.807,0,0,0-1.475.655q-1.252,3.272-1.788,4.767a7.858,7.858,0,0,1-.982,2.058,9.5,9.5,0,0,1-.984,1.5,13.552,13.552,0,0,0-.984,1.4q-.538,1.027-1.252,2.337a12.7,12.7,0,0,1-1.431,2.15q-.625.747-1.429,1.682a21.379,21.379,0,0,1-1.611,1.682,3.647,3.647,0,0,0-1.073,1.309,1.787,1.787,0,0,1-.8.934,3.336,3.336,0,0,0-1.341,1.121q-.895,1.029-1.254,1.5a9.009,9.009,0,0,1-1.608,1.356,23.215,23.215,0,0,1-2.952,1.821,11.952,11.952,0,0,1-3.039,1.308,12.766,12.766,0,0,1-3.666.561h-.805a2.1,2.1,0,0,1-.8-.187,6.815,6.815,0,0,1-2.949-1.774,3.648,3.648,0,0,1-1.163-2.525,9.3,9.3,0,0,1,.4-2.664,5.853,5.853,0,0,1,1.028-2.1,12.362,12.362,0,0,0,1.34-1.45,19.506,19.506,0,0,0,1.255-1.729c.414-.5.758-.889,1.026-1.168a6.4,6.4,0,0,1,1.118-.888,3.016,3.016,0,0,1,1.073-.515,2.435,2.435,0,0,0,1.073-.794,15.752,15.752,0,0,1,1.521-1.4q.8-.656,1.877-1.4,1.161-.937,2.325-1.73a15.788,15.788,0,0,1,2.682-1.45,8.471,8.471,0,0,0,1.118-.513,4.393,4.393,0,0,0,.67-.468,6.582,6.582,0,0,1,.535-.421,3.943,3.943,0,0,1,.716-.374q.983-.468,2.011-.934c.685-.312,1.267-.561,1.743-.748a5.047,5.047,0,0,0,1.88-1.215c.059-.125.134-.312.222-.561s.239-.607.448-1.074.492-1.136.85-2.011a17.341,17.341,0,0,0,.849-2.617c.267-1.059.493-2.025.67-2.9q.356-1.309.537-2.337a15.472,15.472,0,0,1,.626-2.337,3.123,3.123,0,0,0,.178-.841,2.045,2.045,0,0,0-.445-1.308,1.27,1.27,0,0,0-.985-.561,1.9,1.9,0,0,0-.939.281A5.1,5.1,0,0,0,296,189.663q-.9.842-1.386,1.215t-1.119.935a18.364,18.364,0,0,1-1.7,1.355q-.986.7-1.7,1.263a3.931,3.931,0,0,1-1.475.889,2.482,2.482,0,0,0-1.3.981,3.2,3.2,0,0,1-1.611,1.076,6.775,6.775,0,0,0-1.877.981,11.648,11.648,0,0,1-1.52,1.076,13.519,13.519,0,0,0-1.431.981,6.024,6.024,0,0,1-1.341.56,5.676,5.676,0,0,1-1.7.281,1.808,1.808,0,0,1-.983-.187q-.717-.186-1.743-.467a2.335,2.335,0,0,1-1.476-1.029,5.409,5.409,0,0,1-.715-1.635,7.609,7.609,0,0,1-.267-2.01,4.22,4.22,0,0,1,.579-2.2q.582-.982,1.386-2.1a3.352,3.352,0,0,0,.626-1.5,3.574,3.574,0,0,1,.447-1.308c.12-.125.344-.389.672-.8s.67-.808,1.028-1.215.685-.808.984-1.215a7.212,7.212,0,0,0,.537-.794,3.846,3.846,0,0,0,.313-.609,1.465,1.465,0,0,0,.134-.513c0-.748-.356-1.121-1.073-1.121a8.761,8.761,0,0,0-2.325.7m16.184,27.622c.3-.5.626-1,.984-1.5a14.648,14.648,0,0,0,1.251-2.337c-.836.5-1.639.982-2.414,1.45a14.305,14.305,0,0,0-1.609,1.074,3.224,3.224,0,0,1-1.654,1.076,13.266,13.266,0,0,0-2.458,1.169,19.518,19.518,0,0,0-2.192,1.5q-.939.747-1.833,1.4-.626.466-1.519,1.216t-1.61,1.308a20.241,20.241,0,0,0-1.744,1.589q-1.027,1.027-1.654,1.683a18.3,18.3,0,0,0-1.832,2.382,16.279,16.279,0,0,0-1.117,2.1,3.2,3.2,0,0,0-.18.748,1.791,1.791,0,0,0,.359,1.121,1.984,1.984,0,0,0,.805.655,3,3,0,0,0,.892.095,7.639,7.639,0,0,0,1.7-.234,16.169,16.169,0,0,0,1.967-.609,7.235,7.235,0,0,0,2.817-2.1,23.6,23.6,0,0,1,2.637-2.57,4.479,4.479,0,0,0,1.52-1.4,7.178,7.178,0,0,1,1.518-1.682,6.093,6.093,0,0,0,1.208-1.776,2.319,2.319,0,0,1,.848-1.121,4.361,4.361,0,0,0,.9-.842,6.432,6.432,0,0,0,.625-1.308,7.442,7.442,0,0,1,.849-1.637Q291.7,211.629,292.151,210.882Z" transform="translate(-169.162 -144.058)" fill="#9b6a45"/>
    </g>
    <g id="Group_2" data-name="Group 2" transform="translate(269.553 205.593)">
      <path id="Path_5" data-name="Path 5" d="M318.432,232.027H324c2.254,0,3.778.729,3.778,2.933a2.6,2.6,0,0,1-1.608,2.469,2.89,2.89,0,0,1,2.171,3c0,2.4-2.038,3.43-4.176,3.43h-5.733Zm2.6,4.789h2.634c.911,0,1.591-.414,1.591-1.408,0-1.126-.862-1.358-1.791-1.358h-2.435Zm0,5.021h2.783c1.028,0,1.922-.331,1.922-1.558,0-1.21-.762-1.69-1.872-1.69h-2.833Z" transform="translate(-318.432 -232.027)" fill="#9b6a45"/>
      <path id="Path_6" data-name="Path 6" d="M345.9,232.027h8.849v2.187h-6.247v2.535h5.734v2.022h-5.734v2.9h6.38v2.187H345.9Z" transform="translate(-325.678 -232.027)" fill="#9b6a45"/>
      <path id="Path_7" data-name="Path 7" d="M374.9,232.027h2.668l4.424,11.832h-2.7l-.9-2.635h-4.424l-.928,2.635h-2.634Zm-.248,7.258h3.065l-1.491-4.342h-.033Z" transform="translate(-332.14 -232.027)" fill="#9b6a45"/>
      <path id="Path_8" data-name="Path 8" d="M409.186,239.384c0,3.2-1.89,4.756-5.055,4.756-3.181,0-5.037-1.542-5.037-4.756v-7.357h2.6v7.357c0,1.292.331,2.568,2.436,2.568,1.857,0,2.453-.811,2.453-2.568v-7.357h2.6Z" transform="translate(-339.707 -232.027)" fill="#9b6a45"/>
      <path id="Path_9" data-name="Path 9" d="M429.752,234.214h-3.546v-2.187H435.9v2.187h-3.546v9.644h-2.6Z" transform="translate(-346.858 -232.027)" fill="#9b6a45"/>
      <path id="Path_10" data-name="Path 10" d="M455.449,239.252l-4.358-7.225h2.932l2.768,4.673,2.75-4.673h2.9l-4.392,7.291v4.54h-2.6Z" transform="translate(-353.421 -232.027)" fill="#9b6a45"/>
    </g>
  </g>
</svg>
